<?xml version="1.0" encoding="utf-8"?>
<!-- Generator: Adobe Illustrator 26.4.1, SVG Export Plug-In . SVG Version: 6.00 Build 0)  -->
<svg version="1.1" id="Layer_1" xmlns:serif="http://www.serif.com/"
	 xmlns="http://www.w3.org/2000/svg" xmlns:xlink="http://www.w3.org/1999/xlink" x="0px" y="0px" viewBox="0 0 8 8"
	 style="enable-background:new 0 0 8 8;" xml:space="preserve">
<style type="text/css">
	.st0{fill:#FFFFFF;}
</style>
<g>
	<path d="M-146.4-5.8c-1,0-1.8,0.8-1.8,1.8c0,1,0.8,1.8,1.8,1.8c1,0,1.8-0.8,1.8-1.8C-144.6-5-145.4-5.8-146.4-5.8z"/>
	<path d="M-154.4-3.7c-4.3,0-7.7,3.4-7.7,7.7c0,4.3,3.4,7.7,7.7,7.7s7.7-3.4,7.7-7.7C-146.7-0.3-150.2-3.7-154.4-3.7z M-154.4,9
		c-2.8,0-5-2.2-5-5c0-2.8,2.2-5,5-5s5,2.2,5,5C-149.4,6.7-151.7,9-154.4,9z"/>
	<path d="M-140.2-5.8c-0.4-1-0.9-1.8-1.7-2.7c-0.8-0.8-1.7-1.3-2.7-1.7c-1-0.4-2-0.6-3.6-0.7c-1.6-0.1-2.1-0.1-6.2-0.1
		s-4.6,0-6.2,0.1c-1.6,0.1-2.7,0.3-3.6,0.7c-1,0.4-1.8,0.9-2.7,1.7c-0.8,0.8-1.3,1.7-1.7,2.7c-0.4,1-0.6,2-0.7,3.6
		c-0.1,1.6-0.1,2.1-0.1,6.2s0,4.6,0.1,6.2c0.1,1.6,0.3,2.7,0.7,3.6c0.4,1,0.9,1.8,1.7,2.7c0.8,0.8,1.7,1.3,2.7,1.7
		c1,0.4,2,0.6,3.6,0.7c1.6,0.1,2.1,0.1,6.2,0.1s4.6,0,6.2-0.1c1.6-0.1,2.7-0.3,3.6-0.7c1-0.4,1.8-0.9,2.7-1.7
		c0.8-0.8,1.3-1.7,1.7-2.7c0.4-1,0.6-2,0.7-3.6c0.1-1.6,0.1-2.1,0.1-6.2s0-4.6-0.1-6.2C-139.6-3.8-139.8-4.9-140.2-5.8z M-142.2,10
		c-0.1,1.5-0.3,2.3-0.5,2.8c-0.3,0.7-0.6,1.2-1.1,1.7c-0.5,0.5-1,0.8-1.7,1.1c-0.5,0.2-1.3,0.4-2.8,0.5c-1.6,0.1-2.1,0.1-6.1,0.1
		s-4.5,0-6.1-0.1c-1.5-0.1-2.3-0.3-2.8-0.5c-0.7-0.3-1.2-0.6-1.7-1.1c-0.5-0.5-0.9-1-1.1-1.7c-0.2-0.5-0.4-1.3-0.5-2.8
		c-0.1-1.6-0.1-2.1-0.1-6.1s0-4.5,0.1-6.1c0.1-1.5,0.3-2.3,0.5-2.8c0.3-0.7,0.6-1.2,1.1-1.7c0.5-0.5,1-0.8,1.7-1.1
		c0.5-0.2,1.3-0.4,2.8-0.5c1.6-0.1,2.1-0.1,6.1-0.1s4.5,0,6.1,0.1c1.5,0.1,2.3,0.3,2.8,0.5c0.7,0.3,1.2,0.6,1.7,1.1
		c0.5,0.5,0.8,1,1.1,1.7c0.2,0.5,0.4,1.3,0.5,2.8c0.1,1.6,0.1,2.1,0.1,6.1S-142.1,8.5-142.2,10z"/>
	<ellipse transform="matrix(0.9871 -0.1602 0.1602 0.9871 -2.6316 -24.6844)" class="st0" cx="-154.4" cy="4" rx="5" ry="5"/>
	<path class="st0" d="M-142.7-4.9c-0.3-0.7-0.6-1.2-1.1-1.7c-0.5-0.5-1-0.8-1.7-1.1c-0.5-0.2-1.3-0.4-2.8-0.5
		c-1.6-0.1-2.1-0.1-6.1-0.1s-4.5,0-6.1,0.1c-1.5,0.1-2.3,0.3-2.8,0.5c-0.7,0.3-1.2,0.6-1.7,1.1c-0.5,0.5-0.9,1-1.1,1.7
		c-0.2,0.5-0.4,1.3-0.5,2.8c-0.1,1.6-0.1,2.1-0.1,6.1s0,4.5,0.1,6.1c0.1,1.5,0.3,2.3,0.5,2.8c0.3,0.7,0.6,1.2,1.1,1.7
		c0.5,0.5,1,0.8,1.7,1.1c0.5,0.2,1.3,0.4,2.8,0.5c1.6,0.1,2.1,0.1,6.1,0.1s4.5,0,6.1-0.1c1.5-0.1,2.3-0.3,2.8-0.5
		c0.7-0.3,1.2-0.6,1.7-1.1c0.5-0.5,0.8-1,1.1-1.7c0.2-0.5,0.4-1.3,0.5-2.8c0.1-1.6,0.1-2.1,0.1-6.1s0-4.5-0.1-6.1
		C-142.3-3.5-142.5-4.3-142.7-4.9z M-154.4,11.7c-4.3,0-7.7-3.4-7.7-7.7c0-4.3,3.4-7.7,7.7-7.7c4.3,0,7.7,3.4,7.7,7.7
		C-146.7,8.2-150.2,11.7-154.4,11.7z M-146.4-2.2c-1,0-1.8-0.8-1.8-1.8c0-1,0.8-1.8,1.8-1.8c1,0,1.8,0.8,1.8,1.8
		C-144.6-3-145.4-2.2-146.4-2.2z"/>
</g>
<g>
	<path d="M-193.7-2.7c-0.7,0-1.2,0.6-1.2,1.2c0,0.7,0.6,1.2,1.2,1.2c0.7,0,1.2-0.6,1.2-1.2C-192.4-2.2-193-2.7-193.7-2.7z"/>
	<path d="M-199.1-1.3c-2.9,0-5.3,2.4-5.3,5.3c0,2.9,2.4,5.3,5.3,5.3s5.3-2.4,5.3-5.3C-193.9,1.1-196.2-1.3-199.1-1.3z M-199.1,7.4
		c-1.9,0-3.4-1.5-3.4-3.4c0-1.9,1.5-3.4,3.4-3.4c1.9,0,3.4,1.5,3.4,3.4C-195.7,5.9-197.3,7.4-199.1,7.4z"/>
	<path d="M-189.4-2.7c-0.3-0.7-0.6-1.2-1.2-1.8c-0.6-0.6-1.1-0.9-1.8-1.2c-0.7-0.3-1.4-0.4-2.5-0.5c-1.1,0-1.4-0.1-4.2-0.1
		c-2.8,0-3.1,0-4.2,0.1c-1.1,0-1.8,0.2-2.5,0.5c-0.7,0.3-1.2,0.6-1.8,1.2c-0.6,0.6-0.9,1.1-1.2,1.8c-0.3,0.7-0.4,1.4-0.5,2.5
		c0,1.1-0.1,1.4-0.1,4.2s0,3.1,0.1,4.2c0,1.1,0.2,1.8,0.5,2.5c0.3,0.7,0.6,1.2,1.2,1.8c0.6,0.6,1.1,0.9,1.8,1.2
		c0.7,0.3,1.4,0.4,2.5,0.5c1.1,0,1.4,0.1,4.2,0.1c2.8,0,3.1,0,4.2-0.1c1.1,0,1.8-0.2,2.5-0.5c0.7-0.3,1.2-0.6,1.8-1.2
		c0.6-0.6,0.9-1.1,1.2-1.8c0.3-0.7,0.4-1.4,0.5-2.5c0-1.1,0.1-1.4,0.1-4.2s0-3.1-0.1-4.2C-189-1.3-189.2-2.1-189.4-2.7z M-190.8,8.1
		c0,1-0.2,1.5-0.4,1.9c-0.2,0.5-0.4,0.8-0.8,1.2c-0.4,0.4-0.7,0.6-1.2,0.8c-0.4,0.1-0.9,0.3-1.9,0.4c-1.1,0-1.4,0.1-4.1,0.1
		c-2.7,0-3.1,0-4.1-0.1c-1,0-1.5-0.2-1.9-0.4c-0.5-0.2-0.8-0.4-1.2-0.8c-0.4-0.4-0.6-0.7-0.8-1.2c-0.1-0.4-0.3-0.9-0.4-1.9
		c0-1.1-0.1-1.4-0.1-4.1s0-3.1,0.1-4.1c0-1,0.2-1.5,0.4-1.9c0.2-0.5,0.4-0.8,0.8-1.2c0.4-0.4,0.7-0.6,1.2-0.8
		c0.4-0.1,0.9-0.3,1.9-0.4c1.1,0,1.4-0.1,4.1-0.1c2.7,0,3.1,0,4.1,0.1c1,0,1.5,0.2,1.9,0.4c0.5,0.2,0.8,0.4,1.2,0.8
		c0.4,0.4,0.6,0.7,0.8,1.2c0.1,0.4,0.3,0.9,0.4,1.9c0,1.1,0.1,1.4,0.1,4.1S-190.8,7-190.8,8.1z"/>
	<ellipse transform="matrix(0.9871 -0.1602 0.1602 0.9871 -3.2092 -31.8488)" class="st0" cx="-199.1" cy="4" rx="3.4" ry="3.4"/>
	<path class="st0" d="M-191.2-2.1c-0.2-0.5-0.4-0.8-0.8-1.2c-0.4-0.4-0.7-0.6-1.2-0.8c-0.4-0.1-0.9-0.3-1.9-0.4
		c-1.1,0-1.4-0.1-4.1-0.1c-2.7,0-3.1,0-4.1,0.1c-1,0-1.5,0.2-1.9,0.4c-0.5,0.2-0.8,0.4-1.2,0.8c-0.4,0.4-0.6,0.7-0.8,1.2
		c-0.1,0.4-0.3,0.9-0.4,1.9c0,1.1-0.1,1.4-0.1,4.1s0,3.1,0.1,4.1c0,1,0.2,1.5,0.4,1.9c0.2,0.5,0.4,0.8,0.8,1.2
		c0.4,0.4,0.7,0.6,1.2,0.8c0.4,0.1,0.9,0.3,1.9,0.4c1.1,0,1.4,0.1,4.1,0.1c2.7,0,3.1,0,4.1-0.1c1,0,1.5-0.2,1.9-0.4
		c0.5-0.2,0.8-0.4,1.2-0.8c0.4-0.4,0.6-0.7,0.8-1.2c0.1-0.4,0.3-0.9,0.4-1.9c0-1.1,0.1-1.4,0.1-4.1s0-3.1-0.1-4.1
		C-190.8-1.2-191-1.7-191.2-2.1z M-199.1,9.2c-2.9,0-5.3-2.4-5.3-5.3c0-2.9,2.4-5.3,5.3-5.3c2.9,0,5.3,2.4,5.3,5.3
		C-193.9,6.9-196.2,9.2-199.1,9.2z M-193.7-0.3c-0.7,0-1.2-0.6-1.2-1.2c0-0.7,0.6-1.2,1.2-1.2c0.7,0,1.2,0.6,1.2,1.2
		C-192.4-0.8-193-0.3-193.7-0.3z"/>
	<path class="st0" d="M-187.8-11h-22.7c-2,0-3.7,1.6-3.7,3.7v22.7c0,2,1.6,3.7,3.7,3.7h22.7c2,0,3.7-1.6,3.7-3.7V-7.4
		C-184.1-9.4-185.8-11-187.8-11z M-189,8.2c0,1.1-0.2,1.8-0.5,2.5c-0.3,0.7-0.6,1.2-1.2,1.8c-0.6,0.6-1.1,0.9-1.8,1.2
		c-0.7,0.3-1.4,0.4-2.5,0.5c-1.1,0-1.4,0.1-4.2,0.1c-2.8,0-3.1,0-4.2-0.1c-1.1,0-1.8-0.2-2.5-0.5c-0.7-0.3-1.2-0.6-1.8-1.2
		c-0.6-0.6-0.9-1.1-1.2-1.8c-0.3-0.7-0.4-1.4-0.5-2.5c0-1.1-0.1-1.4-0.1-4.2s0-3.1,0.1-4.2c0-1.1,0.2-1.8,0.5-2.5
		c0.3-0.7,0.6-1.2,1.2-1.8c0.6-0.6,1.1-0.9,1.8-1.2c0.7-0.3,1.4-0.4,2.5-0.5c1.1,0,1.4-0.1,4.2-0.1c2.8,0,3.1,0,4.2,0.1
		c1.1,0,1.8,0.2,2.5,0.5c0.7,0.3,1.2,0.6,1.8,1.2c0.6,0.6,0.9,1.1,1.2,1.8c0.3,0.7,0.4,1.4,0.5,2.5c0,1.1,0.1,1.4,0.1,4.2
		S-188.9,7.1-189,8.2z"/>
</g>
<g>
	<path d="M-394.2-37.2c-4.2,0-7.6,3.4-7.6,7.6c0,4.2,3.4,7.6,7.6,7.6c4.2,0,7.6-3.4,7.6-7.6C-386.6-33.8-390-37.2-394.2-37.2z"/>
	<path d="M-427.8-28.4c-17.9,0-32.3,14.5-32.3,32.3c0,17.9,14.5,32.3,32.3,32.3c17.9,0,32.3-14.5,32.3-32.3
		C-395.5-13.9-410-28.4-427.8-28.4z M-427.8,25c-11.6,0-21-9.4-21-21c0-11.6,9.4-21,21-21c11.6,0,21,9.4,21,21
		C-406.8,15.6-416.2,25-427.8,25z"/>
	<path d="M-368.1-37.3c-1.6-4.1-3.8-7.7-7.3-11.2c-3.5-3.5-7-5.7-11.2-7.3c-4-1.6-8.6-2.6-15.3-2.9c-6.7-0.3-8.9-0.4-26-0.4
		c-17.1,0-19.2,0.1-26,0.4c-6.7,0.3-11.3,1.4-15.3,2.9c-4.1,1.6-7.7,3.8-11.2,7.3c-3.5,3.5-5.7,7-7.3,11.2c-1.6,4-2.6,8.6-2.9,15.3
		c-0.3,6.7-0.4,8.9-0.4,26s0.1,19.2,0.4,26c0.3,6.7,1.4,11.3,2.9,15.3c1.6,4.1,3.8,7.7,7.3,11.2c3.5,3.5,7,5.7,11.2,7.3
		c4,1.6,8.6,2.6,15.3,2.9c6.7,0.3,8.9,0.4,26,0.4c17.1,0,19.2-0.1,26-0.4c6.7-0.3,11.3-1.4,15.3-2.9c4.1-1.6,7.7-3.8,11.2-7.3
		c3.5-3.5,5.7-7,7.3-11.2c1.6-4,2.6-8.6,2.9-15.3c0.3-6.7,0.4-8.9,0.4-26s-0.1-19.2-0.4-26C-365.5-28.7-366.6-33.3-368.1-37.3z
		 M-376.6,29.4c-0.3,6.1-1.3,9.5-2.2,11.7c-1.1,2.9-2.5,5-4.7,7.2c-2.2,2.2-4.3,3.6-7.2,4.7c-2.2,0.9-5.6,1.9-11.7,2.2
		c-6.6,0.3-8.6,0.4-25.4,0.4c-16.8,0-18.8-0.1-25.4-0.4c-6.1-0.3-9.5-1.3-11.7-2.2c-2.9-1.1-5-2.5-7.2-4.7c-2.2-2.2-3.6-4.3-4.7-7.2
		c-0.9-2.2-1.9-5.6-2.2-11.7c-0.3-6.6-0.4-8.6-0.4-25.4s0.1-18.8,0.4-25.4c0.3-6.1,1.3-9.5,2.2-11.7c1.1-2.9,2.5-5,4.7-7.2
		c2.2-2.2,4.3-3.6,7.2-4.7c2.2-0.9,5.6-1.9,11.7-2.2c6.6-0.3,8.6-0.4,25.4-0.4c16.8,0,18.8,0.1,25.4,0.4c6.1,0.3,9.5,1.3,11.7,2.2
		c2.9,1.1,5,2.5,7.2,4.7c2.2,2.2,3.6,4.3,4.7,7.2c0.9,2.2,1.9,5.6,2.2,11.7c0.3,6.6,0.4,8.6,0.4,25.4S-376.3,22.8-376.6,29.4z"/>
	<ellipse transform="matrix(0.9871 -0.1602 0.1602 0.9871 -6.1618 -68.4771)" class="st0" cx="-427.8" cy="4" rx="21" ry="21"/>
	<path class="st0" d="M-378.7-33.2c-1.1-2.9-2.5-5-4.7-7.2c-2.2-2.2-4.3-3.6-7.2-4.7c-2.2-0.9-5.6-1.9-11.7-2.2
		c-6.6-0.3-8.6-0.4-25.4-0.4c-16.8,0-18.8,0.1-25.4,0.4c-6.1,0.3-9.5,1.3-11.7,2.2c-2.9,1.1-5,2.5-7.2,4.7c-2.2,2.2-3.6,4.3-4.7,7.2
		c-0.9,2.2-1.9,5.6-2.2,11.7c-0.3,6.6-0.4,8.6-0.4,25.4s0.1,18.8,0.4,25.4c0.3,6.1,1.3,9.5,2.2,11.7c1.1,2.9,2.5,5,4.7,7.2
		c2.2,2.2,4.3,3.6,7.2,4.7c2.2,0.9,5.6,1.9,11.7,2.2c6.6,0.3,8.6,0.4,25.4,0.4c16.8,0,18.8-0.1,25.4-0.4c6.1-0.3,9.5-1.3,11.7-2.2
		c2.9-1.1,5-2.5,7.2-4.7c2.2-2.2,3.6-4.3,4.7-7.2c0.9-2.2,1.9-5.6,2.2-11.7c0.3-6.6,0.4-8.6,0.4-25.4s-0.1-18.8-0.4-25.4
		C-376.8-27.6-377.9-30.9-378.7-33.2z M-427.8,36.3c-17.9,0-32.3-14.5-32.3-32.3c0-17.9,14.5-32.3,32.3-32.3
		c17.9,0,32.3,14.5,32.3,32.3C-395.5,21.8-410,36.3-427.8,36.3z M-394.2-22.1c-4.2,0-7.6-3.4-7.6-7.6c0-4.2,3.4-7.6,7.6-7.6
		c4.2,0,7.6,3.4,7.6,7.6C-386.6-25.5-390-22.1-394.2-22.1z"/>
	<path class="st0" d="M-358.2-88.1h-139.2c-12.4,0-22.5,10.1-22.5,22.5V73.6c0,12.4,10.1,22.5,22.5,22.5h139.2
		c12.4,0,22.5-10.1,22.5-22.5V-65.6C-335.7-78.1-345.8-88.1-358.2-88.1z M-365.2,29.9c-0.3,6.7-1.4,11.3-2.9,15.3
		c-1.6,4.1-3.8,7.7-7.3,11.2c-3.5,3.5-7,5.7-11.2,7.3c-4,1.6-8.6,2.6-15.3,2.9c-6.7,0.3-8.9,0.4-26,0.4c-17.1,0-19.2-0.1-26-0.4
		c-6.7-0.3-11.3-1.4-15.3-2.9c-4.1-1.6-7.7-3.8-11.2-7.3c-3.5-3.5-5.7-7-7.3-11.2c-1.6-4-2.6-8.6-2.9-15.3c-0.3-6.7-0.4-8.9-0.4-26
		s0.1-19.2,0.4-26c0.3-6.7,1.4-11.3,2.9-15.3c1.6-4.1,3.8-7.7,7.3-11.2c3.5-3.5,7-5.7,11.2-7.3c4-1.6,8.6-2.6,15.3-2.9
		c6.7-0.3,8.9-0.4,26-0.4c17.1,0,19.2,0.1,26,0.4c6.7,0.3,11.3,1.4,15.3,2.9c4.1,1.6,7.7,3.8,11.2,7.3c3.5,3.5,5.7,7,7.3,11.2
		c1.6,4,2.6,8.6,2.9,15.3c0.3,6.7,0.4,8.9,0.4,26S-364.9,23.2-365.2,29.9z"/>
</g>
<g>
	<path class="st0" d="M-105.7,1.4c-0.3,0-0.5,0.2-0.5,0.5c0,0.3,0.2,0.5,0.5,0.5c0.3,0,0.5-0.2,0.5-0.5
		C-105.3,1.6-105.5,1.4-105.7,1.4z"/>
	<path class="st0" d="M-107.9,1.9c-1.1,0-2,0.9-2,2c0,1.1,0.9,2,2,2s2-0.9,2-2C-105.8,2.9-106.7,1.9-107.9,1.9z M-107.9,5.3
		c-0.7,0-1.3-0.6-1.3-1.3c0-0.7,0.6-1.3,1.3-1.3s1.3,0.6,1.3,1.3C-106.5,4.7-107.1,5.3-107.9,5.3z"/>
	<path class="st0" d="M-104.1,1.4c-0.1-0.3-0.2-0.5-0.5-0.7c-0.2-0.2-0.4-0.4-0.7-0.5c-0.3-0.1-0.5-0.2-1-0.2c-0.4,0-0.6,0-1.6,0
		s-1.2,0-1.6,0c-0.4,0-0.7,0.1-1,0.2c-0.3,0.1-0.5,0.2-0.7,0.5c-0.2,0.2-0.4,0.4-0.5,0.7c-0.1,0.3-0.2,0.5-0.2,1c0,0.4,0,0.6,0,1.6
		s0,1.2,0,1.6c0,0.4,0.1,0.7,0.2,1c0.1,0.3,0.2,0.5,0.5,0.7c0.2,0.2,0.4,0.4,0.7,0.5c0.3,0.1,0.5,0.2,1,0.2c0.4,0,0.6,0,1.6,0
		s1.2,0,1.6,0c0.4,0,0.7-0.1,1-0.2c0.3-0.1,0.5-0.2,0.7-0.5c0.2-0.2,0.4-0.4,0.5-0.7c0.1-0.3,0.2-0.5,0.2-1c0-0.4,0-0.6,0-1.6
		s0-1.2,0-1.6C-103.9,1.9-104,1.6-104.1,1.4z M-104.6,5.6c0,0.4-0.1,0.6-0.1,0.7c-0.1,0.2-0.2,0.3-0.3,0.5c-0.1,0.1-0.3,0.2-0.5,0.3
		c-0.1,0.1-0.4,0.1-0.7,0.1c-0.4,0-0.5,0-1.6,0s-1.2,0-1.6,0c-0.4,0-0.6-0.1-0.7-0.1c-0.2-0.1-0.3-0.2-0.5-0.3
		c-0.1-0.1-0.2-0.3-0.3-0.5c-0.1-0.1-0.1-0.4-0.1-0.7c0-0.4,0-0.5,0-1.6s0-1.2,0-1.6c0-0.4,0.1-0.6,0.1-0.7c0.1-0.2,0.2-0.3,0.3-0.5
		c0.1-0.1,0.3-0.2,0.5-0.3c0.1-0.1,0.4-0.1,0.7-0.1c0.4,0,0.5,0,1.6,0c1.1,0,1.2,0,1.6,0c0.4,0,0.6,0.1,0.7,0.1
		c0.2,0.1,0.3,0.2,0.5,0.3c0.1,0.1,0.2,0.3,0.3,0.5c0.1,0.1,0.1,0.4,0.1,0.7c0,0.4,0,0.5,0,1.6S-104.6,5.2-104.6,5.6z"/>
</g>
<g>
	<path class="st0" d="M-76.1,0.9c-0.3,0.2-0.7,0.3-1,0.4c-0.3-0.3-0.7-0.5-1.2-0.5c-0.9,0-1.6,0.7-1.6,1.6c0,0.1,0,0.3,0,0.4
		C-81.3,2.7-82.5,2-83.3,1c-0.1,0.2-0.2,0.5-0.2,0.8c0,0.6,0.3,1.1,0.7,1.4c-0.3,0-0.5-0.1-0.7-0.2v0c0,0.8,0.6,1.5,1.3,1.6
		c-0.1,0-0.3,0.1-0.4,0.1c-0.1,0-0.2,0-0.3,0c0.2,0.7,0.8,1.1,1.5,1.1c-0.6,0.4-1.3,0.7-2,0.7c-0.1,0-0.3,0-0.4,0
		c0.7,0.5,1.6,0.7,2.5,0.7c3,0,4.7-2.5,4.7-4.7c0-0.1,0-0.1,0-0.2c0.3-0.2,0.6-0.5,0.8-0.8c-0.3,0.1-0.6,0.2-0.9,0.3
		C-76.5,1.6-76.3,1.2-76.1,0.9z"/>
</g>
<g>
	<g id="XMLID_00000093859845263955847910000008798126456154307202_">
		<path id="XMLID_00000141413038420570292080000011175790286247084728_" class="st0" d="M-53.8,4.2h0.9v3.6c0,0.1,0.1,0.1,0.1,0.1
			h1.5c0.1,0,0.1-0.1,0.1-0.1V4.3h1c0.1,0,0.1,0,0.1-0.1l0.2-1.3c0,0,0-0.1,0-0.1c0,0-0.1,0-0.1,0h-1.2V1.8c0-0.2,0.1-0.4,0.4-0.4
			c0,0,0.8,0,0.8,0c0.1,0,0.1-0.1,0.1-0.1V0.1c0-0.1-0.1-0.1-0.1-0.1h-1c0,0,0,0,0,0c-0.2,0-0.8,0-1.3,0.5C-53,1-52.9,1.6-52.9,1.7
			v1h-0.9c-0.1,0-0.1,0.1-0.1,0.1v1.3C-54,4.2-53.9,4.2-53.8,4.2z"/>
	</g>
	<g>
	</g>
	<g>
	</g>
	<g>
	</g>
	<g>
	</g>
	<g>
	</g>
	<g>
	</g>
	<g>
	</g>
	<g>
	</g>
	<g>
	</g>
	<g>
	</g>
	<g>
	</g>
	<g>
	</g>
	<g>
	</g>
	<g>
	</g>
	<g>
	</g>
</g>
<g>
	<path class="st0" d="M-20.6,5.8C-20.6,5.8-20.6,5.9-20.6,5.8C-20.6,5.9-20.6,5.9-20.6,5.8c-0.1,0.3-0.2,0.5-0.3,0.7
		c-0.2,0.4-0.5,0.8-0.9,1.2c0,0-0.1,0.1-0.1,0.1c-0.2,0.2-0.5,0.2-0.8,0.2c-0.2,0-0.3-0.1-0.4-0.1c-0.2-0.1-0.4-0.1-0.6-0.2
		c-0.2,0-0.5,0-0.7,0.1c-0.1,0-0.2,0.1-0.3,0.1C-24.9,7.9-25,8-25.2,8c-0.1,0-0.2,0-0.3-0.1c-0.1-0.1-0.2-0.1-0.3-0.2
		c-0.1-0.1-0.2-0.2-0.2-0.3c-0.3-0.4-0.6-0.8-0.8-1.2c-0.2-0.5-0.4-1.1-0.4-1.6c0-0.3,0-0.6,0.1-0.9c0.1-0.3,0.2-0.6,0.3-0.8
		c0.2-0.3,0.5-0.6,0.9-0.8c0.2-0.1,0.3-0.1,0.5-0.1c0.1,0,0.1,0,0.2,0c0.1,0,0.3,0,0.4,0.1c0.2,0,0.3,0.1,0.5,0.2
		c0.1,0,0.2,0.1,0.4,0.1c0,0,0.1,0,0.1,0c0.1,0,0.3-0.1,0.4-0.1c0.2-0.1,0.4-0.1,0.6-0.2c0.2,0,0.3-0.1,0.5-0.1c0.2,0,0.5,0,0.7,0.1
		c0.3,0.1,0.6,0.3,0.8,0.5c0,0,0.1,0.1,0.1,0.1c0,0,0,0,0,0c0,0,0,0,0,0c-0.2,0.1-0.4,0.3-0.5,0.4c-0.3,0.4-0.4,0.8-0.4,1.2
		c0,0.2,0.1,0.4,0.2,0.6c0.1,0.3,0.4,0.6,0.7,0.8C-20.8,5.8-20.7,5.8-20.6,5.8z"/>
	<path class="st0" d="M-22.3,0c0,0.1,0,0.1,0,0.2c0,0.3-0.1,0.6-0.3,0.9c-0.2,0.3-0.5,0.5-0.8,0.7c-0.1,0.1-0.3,0.1-0.5,0.1
		c0,0-0.1,0-0.1,0c0,0,0,0,0,0c0-0.4,0.1-0.8,0.3-1.1c0.2-0.3,0.6-0.6,0.9-0.7C-22.6,0-22.4,0-22.3,0z"/>
</g>
<g>
	<path class="st0" d="M4,8C4,8,4,8,3.9,8c0,0,0,0,0,0c-0.4,0-0.8-0.1-1.2-0.2C2,7.5,1.4,7.1,0.9,6.5C0.4,5.9,0.1,5.1,0,4.3
		c0-0.4,0-0.7,0.1-1.1c0.2-0.8,0.5-1.5,1.2-2.1C2,0.4,2.9,0,3.9,0c0.3,0,0.5,0,0.8,0.1c0.8,0.1,1.5,0.5,2.1,1.1
		c0.3,0.3,0.6,0.7,0.8,1.1C7.8,2.8,7.9,3.3,8,3.9c0,0.3,0,0.6-0.1,0.8c-0.2,0.8-0.5,1.4-1,2C6.5,7.1,6.1,7.4,5.6,7.6
		C5.1,7.8,4.6,7.9,4,8C4.1,8,4.1,8,4,8z M1.2,2.7c0,0.2,0.1,0.3,0.2,0.4c0.1,0,0.2,0,0.3,0C2,3,2.4,2.9,2.8,2.9c0.4,0,0.7,0,1,0
		c0.3,0,0.7,0.1,1,0.1c0.3,0.1,0.7,0.2,1,0.3C6,3.4,6.1,3.5,6.3,3.6c0.1,0,0.2,0,0.3,0c0.3-0.1,0.3-0.5,0.1-0.6
		C6.6,2.9,6.6,2.8,6.5,2.8C6.2,2.6,5.9,2.5,5.6,2.4c-0.5-0.2-1-0.3-1.5-0.3c-0.2,0-0.4,0-0.7-0.1c-0.1,0-0.1,0-0.2,0
		c-0.2,0-0.4,0-0.6,0c-0.2,0-0.4,0-0.6,0.1c-0.3,0-0.5,0.1-0.7,0.2C1.3,2.4,1.2,2.5,1.2,2.7z M3.2,3.5C3.2,3.5,3.2,3.5,3.2,3.5
		c-0.1,0-0.1,0-0.2,0c-0.3,0-0.6,0-0.9,0.1C2,3.6,1.8,3.6,1.6,3.7C1.4,3.8,1.4,4.1,1.5,4.2c0.1,0.1,0.2,0.1,0.3,0.1
		C2.2,4.2,2.6,4.1,3,4.1c0.4,0,0.8,0,1.2,0.1c0.5,0.1,1.1,0.3,1.6,0.6c0,0,0.1,0,0.2,0c0.1,0,0.3-0.1,0.3-0.2c0-0.1,0-0.3-0.1-0.4
		C6,4.2,5.9,4.1,5.8,4C5.4,3.9,5.1,3.7,4.7,3.6C4.4,3.6,4.1,3.5,3.8,3.5C3.6,3.5,3.4,3.5,3.2,3.5z M5.5,5.9C5.5,5.9,5.5,5.9,5.5,5.9
		C5.5,5.9,5.6,5.9,5.5,5.9c0.2,0,0.2-0.1,0.2-0.2c0-0.1,0-0.2-0.1-0.3C5.6,5.3,5.5,5.3,5.3,5.2C4.8,4.9,4.2,4.8,3.6,4.8
		c-0.1,0-0.2,0-0.3,0c0,0-0.1,0-0.1,0c-0.2,0-0.4,0-0.6,0.1C2.3,4.8,2,4.9,1.8,5c0,0-0.1,0-0.1,0c-0.1,0.1-0.1,0.2,0,0.3
		c0.1,0.1,0.2,0.1,0.3,0.1c0.1,0,0.3-0.1,0.4-0.1c0.3-0.1,0.6-0.1,0.9-0.1c0.3,0,0.5,0,0.8,0c0.3,0,0.6,0.1,0.9,0.3
		C5,5.7,5.2,5.7,5.4,5.8C5.4,5.8,5.5,5.9,5.5,5.9z"/>
</g>
</svg>
